<?xml version="1.0" standalone="no"?>
<!DOCTYPE svg PUBLIC "-//W3C//DTD SVG 20010904//EN"
 "http://www.w3.org/TR/2001/REC-SVG-20010904/DTD/svg10.dtd">
<svg version="1.0" xmlns="http://www.w3.org/2000/svg"
 width="512.000000pt" height="512.000000pt" viewBox="0 0 512.000000 512.000000"
 preserveAspectRatio="xMidYMid meet">
<metadata>
Created by potrace 1.14, written by Peter Selinger 2001-2017
</metadata>
<g transform="translate(0.000000,512.000000) scale(0.100000,-0.100000)"
fill="#000000" stroke="none">
<path d="M4075 4501 c-50 -31 -72 -62 -108 -156 -152 -392 -938 -2081 -1343
-2881 -166 -329 -172 -340 -189 -322 -7 7 -135 243 -285 523 -150 281 -300
562 -335 625 -34 63 -178 333 -320 600 -417 782 -388 731 -435 765 -34 25 -51
30 -98 30 -71 0 -122 -29 -157 -89 l-25 -43 0 -1098 0 -1099 21 -44 c25 -51
77 -88 135 -98 36 -5 97 12 467 137 234 79 428 141 430 139 2 -3 99 -183 216
-400 117 -217 222 -407 233 -423 43 -60 154 -86 231 -53 94 39 219 249 559
936 116 234 212 426 213 428 1 1 216 74 477 161 262 88 488 167 502 176 15 10
38 37 52 60 l24 42 -2 995 -3 995 -29 37 c-15 21 -42 46 -60 57 -42 25 -130
26 -171 0z"/>
</g>
</svg>
