<svg width="379" height="278" viewBox="0 0 379 278" fill="none" xmlns="http://www.w3.org/2000/svg">
<path d="M177.236 164.302C177.134 167.923 176.404 171.451 176.75 174.923C177.298 179.922 178.265 184.982 180.127 189.745C191.39 219.192 210.585 242.527 239.221 255.269C268.482 268.102 298.278 265.616 325.475 247.353C339.178 238.237 350.295 226.39 359.538 212.773C361.189 210.234 362.809 207.905 365.749 203.844C367.575 210.313 368.99 215.224 370.374 220.345C371.031 220.227 371.657 220.319 372.523 220.232C372.946 218.797 373.787 217.423 373.793 215.927C374.238 208.507 374.474 201.057 374.71 193.607C374.788 188.7 375.105 183.614 370.191 180.757C365.099 177.66 360.046 180.129 355.976 183.169C350.438 187.492 345.226 192.503 340.224 197.546C339.205 198.68 339.703 201.105 339.428 202.989C341.307 203.264 343.512 204.228 344.887 203.574C349.044 201.402 352.666 198.51 356.706 195.679C356.823 196.338 357.179 196.817 356.939 196.996C333.917 240.675 296.496 263.217 249.591 251.439C247.325 250.894 245.089 250.139 242.915 248.966C212.467 234.035 191.78 210.695 181.842 178.02C180.544 173.767 180.383 169.039 179.773 164.459C178.937 164.337 178.072 164.424 177.236 164.302Z" fill="#0D1927"/>
<path d="M11.1025 109.835C10.8482 109.912 10.6154 109.843 10.4041 109.63C10.2077 109.411 10.0396 109.07 9.89971 108.607C9.87715 108.532 9.85233 108.45 9.82526 108.36C9.79368 108.255 9.74998 108.056 9.69418 107.763C9.4142 106.672 9.75576 105.884 10.7189 105.398L11.2214 105.197C11.5519 105.048 11.7896 104.862 11.9345 104.639C12.0748 104.401 12.1425 104.111 12.1375 103.77C12.1346 102.841 12.1295 101.904 12.1221 100.96C12.1147 100.015 12.1246 99.0738 12.1516 98.1354C12.1568 97.6116 12.153 97.0578 12.1402 96.4742C12.1378 95.8711 12.1452 95.2731 12.1622 94.6805C12.1943 94.0833 12.251 93.4868 12.3325 92.891C12.4289 92.2907 12.5687 91.7263 12.752 91.1977C12.8325 90.9776 12.9631 90.7342 13.1438 90.4676C13.3245 90.2009 13.5419 89.9477 13.7959 89.7078C14.0604 89.4485 14.3512 89.2221 14.6682 89.0286C14.9956 88.8156 15.3314 88.6572 15.6755 88.5534C16.1242 88.4181 16.6084 88.4271 17.128 88.5805C17.8332 88.8084 18.5558 89.1209 19.2957 89.5179C20.0356 89.9149 20.8902 90.4487 21.8595 91.1192C22.8288 91.7898 23.9667 92.6135 25.2731 93.5903C26.5751 94.5522 28.143 95.7195 29.9769 97.0922C30.239 97.2579 30.4929 97.369 30.7384 97.4255C30.9944 97.4626 31.272 97.436 31.5712 97.3457L32.8502 96.96C33.3738 96.802 33.816 96.8074 34.1769 96.976C34.5483 97.1251 34.7994 97.4165 34.9303 97.8504C34.9573 97.9401 34.9815 98.0471 35.0026 98.1713C35.0387 98.291 35.0523 98.4174 35.0436 98.5506L34.9962 99.9358C35.0024 100.064 35.0115 100.176 35.0236 100.27C35.0358 100.365 35.0553 100.457 35.0824 100.546C35.1772 100.86 35.3789 101.15 35.6876 101.416L39.0767 103.968C39.4678 104.291 39.7174 104.632 39.8257 104.991C39.9882 105.529 39.8236 106.093 39.3321 106.682L38.6621 107.545C38.4933 107.743 38.323 107.909 38.151 108.042C37.9941 108.171 37.8184 108.265 37.6239 108.323C37.3546 108.405 37.0755 108.399 36.7865 108.307C36.517 108.225 36.2369 108.081 35.9463 107.875C34.9214 107.074 33.8936 106.291 32.8628 105.524C31.847 104.754 30.8184 103.995 29.7772 103.248C29.2887 102.873 28.7603 102.771 28.1918 102.943C26.3894 103.568 24.6109 104.219 22.8563 104.895C21.1123 105.551 19.3697 106.24 17.6287 106.961C17.0035 107.215 16.7034 107.681 16.7284 108.359L16.8353 112.366C16.8638 113.434 16.4143 114.108 15.4868 114.388L15.1278 114.496L14.4051 114.616C13.883 114.725 13.4466 114.685 13.0962 114.497C12.7606 114.305 12.5275 113.991 12.3966 113.558C12.3695 113.468 12.3477 113.368 12.3311 113.259C12.3144 113.15 12.303 113.031 12.2969 112.902C12.2814 112.58 12.2637 112.251 12.2438 111.915C12.2388 111.573 12.236 111.24 12.2356 110.913C12.2294 110.785 12.2202 110.673 12.2081 110.579C12.1915 110.47 12.1697 110.37 12.1426 110.28C12.0027 109.817 11.7533 109.639 11.3943 109.747L11.1025 109.835ZM18.2101 94.7658C18.0199 94.6763 17.8515 94.6047 17.7047 94.5511C17.558 94.4974 17.4173 94.4909 17.2827 94.5315C16.9087 94.6443 16.7258 94.985 16.7342 95.5537C16.7012 96.5266 16.6734 97.4897 16.6509 98.443C16.6388 99.3769 16.626 100.336 16.6125 101.319C16.6051 101.403 16.6104 101.474 16.6285 101.534C16.6465 101.594 16.6668 101.661 16.6894 101.736C16.8563 102.29 17.2315 102.479 17.8149 102.303L18.0393 102.235C18.9008 101.845 19.7713 101.484 20.6508 101.153C21.5258 100.808 22.4053 100.477 23.2894 100.162C23.5795 100.042 23.7888 99.8969 23.9173 99.7276C24.0562 99.5389 24.0941 99.3398 24.0309 99.1303C23.9722 98.9359 23.8125 98.7311 23.5518 98.5159C22.6709 97.8677 21.7869 97.2367 20.9 96.6229C20.0236 95.9896 19.127 95.3706 18.2101 94.7658ZM50.069 85.059C50.1379 85.0709 50.2322 85.0588 50.3518 85.0227C50.6809 84.9234 50.7801 84.6569 50.6492 84.223L48.5444 77.2445C48.2782 76.3619 48.2832 75.6749 48.5594 75.1836C48.8505 74.6878 49.4598 74.3001 50.3872 74.0203C51.3297 73.7361 52.054 73.7298 52.5603 74.0014C53.0665 74.273 53.4618 74.8801 53.746 75.8225C53.8543 76.1815 53.9921 76.7194 54.1592 77.436C54.3219 78.1377 54.5064 78.9388 54.7128 79.8395C54.9341 80.7356 55.1757 81.6991 55.4377 82.7299C55.6951 83.7457 55.9727 84.7472 56.2705 85.7346C56.7307 87.2604 57.2324 88.5453 57.7757 89.5891C58.3191 90.6329 58.8957 91.4627 59.5057 92.0784C60.1113 92.6791 60.7374 93.0778 61.3843 93.2744C62.0266 93.456 62.6843 93.4453 63.3575 93.2423C63.7315 93.1295 64.0545 92.9831 64.3266 92.8031C64.6092 92.6036 64.9599 92.4407 65.3788 92.3144C65.678 92.2242 65.9722 92.3068 66.2614 92.5623C66.5611 92.7983 66.7763 93.1332 66.9072 93.5671C67.0245 93.956 67.0153 94.3586 66.8798 94.7749C66.7591 95.1866 66.5352 95.5805 66.208 95.9567C65.8958 96.3283 65.5004 96.6679 65.022 96.9754C64.539 97.2679 64.0133 97.4999 63.4448 97.6714C62.2182 98.0413 60.9834 98.0058 59.7406 97.5646C58.4932 97.1085 57.3806 96.1792 56.4028 94.7768C56.2857 94.551 56.1748 94.4539 56.0701 94.4855C55.9504 94.5216 55.8893 94.6706 55.8867 94.9325C55.8121 96.1464 55.5789 97.2939 55.1869 98.375C54.8053 99.4366 54.2754 100.412 53.5973 101.302C52.9296 102.173 52.1293 102.928 51.1963 103.569C50.2784 104.205 49.2509 104.694 48.114 105.037C46.9172 105.398 45.7568 105.528 44.6327 105.426C43.5281 105.335 42.5107 105.046 41.5806 104.56C40.646 104.058 39.8323 103.39 39.1397 102.554C38.4425 101.703 37.9247 100.717 37.5863 99.5952C37.1532 98.1591 37.0441 96.7151 37.2589 95.263C37.4738 93.811 37.9477 92.4604 38.6807 91.2111C39.4241 89.9424 40.393 88.826 41.5874 87.8619C42.7818 86.8979 44.1494 86.1835 45.6902 85.7187C46.3185 85.5292 47 85.3808 47.7346 85.2735C48.4648 85.1512 49.2429 85.0797 50.069 85.059ZM47.7709 100.734C48.6236 100.477 49.3227 100.062 49.8681 99.4896C50.4284 98.9125 50.8772 98.2631 51.2144 97.5412C51.562 96.7999 51.8115 96.031 51.963 95.2346C52.11 94.4232 52.1964 93.6546 52.2223 92.9287C52.2481 92.2028 52.2345 91.5623 52.1813 91.0071C52.1281 90.452 52.0676 90.0622 52 89.8378C51.9503 89.6733 51.8626 89.5447 51.7367 89.4521C51.6064 89.3445 51.4402 89.2804 51.2381 89.2597C50.8026 89.2769 50.3567 89.3134 49.9003 89.3695C49.4394 89.4106 48.9905 89.4644 48.5536 89.5309C48.1167 89.5973 47.6992 89.6743 47.3013 89.7617C46.9182 89.8446 46.5697 89.9334 46.2555 90.0281C45.358 90.2988 44.5833 90.6794 43.9315 91.1697C43.2797 91.6601 42.7664 92.231 42.3918 92.8826C42.032 93.5297 41.8138 94.2401 41.7371 95.014C41.656 95.7729 41.7372 96.5562 41.9808 97.364C42.1974 98.0821 42.4984 98.7013 42.8838 99.2215C43.2796 99.7223 43.7254 100.118 44.2212 100.409C44.732 100.696 45.2905 100.87 45.8967 100.932C46.5029 100.994 47.1277 100.928 47.7709 100.734ZM76.9959 76.9376C77.0648 76.9495 77.1591 76.9374 77.2787 76.9013C77.6079 76.802 77.707 76.5355 77.5761 76.1017L75.4713 69.1231C75.2051 68.2405 75.2101 67.5535 75.4863 67.0623C75.7774 66.5664 76.3867 66.1787 77.3142 65.8989C78.2566 65.6147 78.9809 65.6084 79.4872 65.88C79.9934 66.1517 80.3887 66.7587 80.6729 67.7011C80.7812 68.0602 80.919 68.598 81.0861 69.3146C81.2488 70.0163 81.4333 70.8174 81.6397 71.7181C81.861 72.6142 82.1026 73.5777 82.3646 74.6085C82.622 75.6243 82.8996 76.6258 83.1974 77.6132C83.6576 79.139 84.1593 80.4239 84.7027 81.4677C85.246 82.5115 85.8226 83.3413 86.4327 83.957C87.0382 84.5577 87.6643 84.9564 88.3112 85.153C88.9535 85.3346 89.6112 85.3239 90.2844 85.1209C90.6584 85.0081 90.9814 84.8617 91.2535 84.6817C91.5361 84.4823 91.8868 84.3194 92.3057 84.193C92.6049 84.1028 92.8991 84.1854 93.1883 84.4409C93.488 84.6769 93.7032 85.0119 93.8341 85.4457C93.9514 85.8346 93.9422 86.2372 93.8067 86.6535C93.6861 87.0652 93.4621 87.4592 93.1349 87.8353C92.8227 88.2069 92.4274 88.5465 91.9489 88.854C91.4659 89.1465 90.9402 89.3785 90.3717 89.55C89.1451 89.92 87.9103 89.8844 86.6675 89.4432C85.4201 88.9871 84.3075 88.0578 83.3297 86.6555C83.2126 86.4296 83.1017 86.3325 82.997 86.3641C82.8773 86.4002 82.8162 86.5492 82.8136 86.8111C82.7391 88.025 82.5058 89.1725 82.1138 90.2536C81.7322 91.3153 81.2023 92.2911 80.5242 93.1811C79.8565 94.0516 79.0562 94.807 78.1232 95.4475C77.2053 96.0834 76.1778 96.5728 75.0409 96.9157C73.8442 97.2766 72.6837 97.4063 71.5596 97.3047C70.455 97.2135 69.4376 96.9247 68.5075 96.4382C67.5729 95.9367 66.7593 95.2682 66.0666 94.4326C65.3694 93.5821 64.8516 92.5958 64.5132 91.4738C64.0801 90.0377 63.971 88.5937 64.1858 87.1417C64.4007 85.6896 64.8746 84.339 65.6076 83.0898C66.3511 81.821 67.32 80.7046 68.5143 79.7406C69.7087 78.7765 71.0763 78.0621 72.6171 77.5973C73.2454 77.4078 73.9269 77.2594 74.6616 77.1521C75.3917 77.0298 76.1698 76.9583 76.9959 76.9376ZM74.6978 92.6127C75.5505 92.3555 76.2496 91.9407 76.795 91.3682C77.3554 90.7912 77.8041 90.1417 78.1413 89.4199C78.4889 88.6785 78.7385 87.9097 78.8899 87.1132C79.0369 86.3019 79.1233 85.5332 79.1492 84.8073C79.1751 84.0814 79.1614 83.4409 79.1082 82.8858C79.055 82.3306 78.9946 81.9408 78.9269 81.7164C78.8772 81.5519 78.7895 81.4233 78.6637 81.3307C78.5333 81.2231 78.3671 81.159 78.165 81.1384C77.7295 81.1555 77.2836 81.192 76.8272 81.2481C76.3663 81.2892 75.9174 81.343 75.4805 81.4095C75.0436 81.476 74.6261 81.5529 74.2282 81.6403C73.8452 81.7232 73.4966 81.812 73.1824 81.9067C72.2849 82.1774 71.5102 82.558 70.8584 83.0483C70.2066 83.5387 69.6934 84.1096 69.3187 84.7612C68.9589 85.4083 68.7407 86.1187 68.6641 86.8926C68.5829 87.6515 68.6641 88.4349 68.9077 89.2427C69.1243 89.9607 69.4253 90.5799 69.8107 91.1001C70.2065 91.6009 70.6523 91.9968 71.1481 92.2879C71.6589 92.5745 72.2174 92.7488 72.8236 92.8108C73.4298 92.8727 74.0546 92.8067 74.6978 92.6127ZM112.94 62.5958C113.763 62.3476 114.594 62.2356 115.434 62.2598C116.274 62.284 117.053 62.4326 117.772 62.7054C118.49 62.9782 119.117 63.3769 119.65 63.9014C120.199 64.4214 120.588 65.0629 120.818 65.8258C120.913 66.1399 120.931 66.4692 120.871 66.8135C120.822 67.1383 120.712 67.449 120.54 67.7456C120.364 68.0272 120.139 68.2827 119.866 68.5121C119.603 68.722 119.307 68.8766 118.977 68.9759C118.948 68.9849 118.92 69.0014 118.894 69.0254C118.879 69.0299 118.857 69.0367 118.827 69.0457C118.802 69.0697 118.774 69.0862 118.744 69.0952L119.375 70.8632C120.08 72.9844 120.851 74.4574 121.687 75.2823C122.539 76.1027 123.406 76.3798 124.288 76.1136C124.602 76.0188 124.87 75.9054 125.091 75.7734C125.328 75.6369 125.539 75.4996 125.726 75.3617C125.923 75.2042 126.11 75.0663 126.287 74.9478C126.463 74.8293 126.649 74.7407 126.843 74.682C127.187 74.5783 127.531 74.6376 127.876 74.8601C128.235 75.0781 128.478 75.3965 128.605 75.8154C128.731 76.2342 128.693 76.7027 128.49 77.2209C128.302 77.7345 127.998 78.2423 127.579 78.7442C127.154 79.2313 126.645 79.6788 126.05 80.0867C125.455 80.4947 124.82 80.8002 124.147 81.0032C122.98 81.3551 121.811 81.1855 120.64 80.4943C119.464 79.7881 118.407 78.5565 117.469 76.7994C117.289 76.5272 117.124 76.4137 116.975 76.4589C116.795 76.513 116.665 76.6501 116.585 76.8702C115.668 79.1868 114.514 81.069 113.122 82.5168C111.727 83.9496 110.214 84.9119 108.583 85.4037C107.82 85.6338 107.098 85.7292 106.417 85.6898C105.736 85.6504 105.118 85.4941 104.562 85.2211C104.017 84.9285 103.537 84.5267 103.121 84.0154C102.717 83.4847 102.404 82.8529 102.182 82.1199C101.871 81.0877 101.768 79.9354 101.874 78.6632C101.995 77.3864 102.278 76.0772 102.722 74.7356C103.166 73.394 103.745 72.0686 104.46 70.7595C105.19 69.4459 106.001 68.2385 106.893 67.1372C107.799 66.0313 108.769 65.0781 109.8 64.2773C110.832 63.4766 111.878 62.9161 112.94 62.5958ZM114.542 70.583C114.657 69.9932 114.794 69.5522 114.95 69.2602C115.103 68.9531 115.377 68.6991 115.773 68.4979C116.089 68.3538 116.222 68.1995 116.172 68.0349C116.136 67.9152 116.053 67.8016 115.922 67.694C115.521 67.3908 115.12 67.1445 114.72 66.955C114.316 66.7506 113.852 66.7273 113.328 66.8852C112.76 67.0567 112.174 67.413 111.57 67.9541C110.966 68.4953 110.381 69.1532 109.815 69.9278C109.26 70.6829 108.736 71.518 108.245 72.4331C107.765 73.3288 107.366 74.2244 107.048 75.1198C106.731 76.0153 106.516 76.8716 106.403 77.6889C106.291 78.5063 106.32 79.1991 106.491 79.7676C106.645 80.2762 106.899 80.632 107.254 80.835C107.624 81.0336 108.048 81.0606 108.527 80.9162C109.754 80.5463 110.896 79.4917 111.955 77.7526C113.013 76.0135 113.876 73.6236 114.542 70.583ZM134.304 60.4608C134.128 59.8774 134.257 59.3571 134.69 58.9C135.119 58.4279 135.82 58.0453 136.792 57.752C137.017 57.6843 137.228 57.6533 137.425 57.659C137.623 57.6647 137.816 57.737 138.005 57.8759C138.204 57.9954 138.408 58.1866 138.618 58.4497C138.828 58.7128 139.063 59.0582 139.323 59.4858C139.6 59.9733 139.799 60.199 139.918 60.1629C140.023 60.1313 140.085 59.8761 140.104 59.3971C140.116 58.4632 140.244 57.6167 140.488 56.8576C140.743 56.0789 141.084 55.3967 141.511 54.8109C141.934 54.2102 142.435 53.7081 143.015 53.3046C143.61 52.8967 144.267 52.5844 144.985 52.3678C146.436 51.9302 147.873 51.7986 149.297 51.9731C150.716 52.1327 152.028 52.561 153.234 53.2581C154.435 53.9403 155.496 54.8606 156.417 56.0192C157.333 57.1627 158.021 58.4974 158.481 60.0233C158.969 61.6389 159.136 63.2206 158.982 64.7683C158.844 66.3115 158.425 67.7354 157.725 69.0399C157.02 70.3296 156.056 71.4609 154.831 72.434C153.627 73.4176 152.201 74.1575 150.556 74.6538L149.398 74.9541C148.725 75.1571 148.503 75.6401 148.733 76.403L152.984 86.3574C153.046 86.6162 153.026 86.8752 152.925 87.1342C152.843 87.4038 152.692 87.6614 152.472 87.9072C152.268 88.1484 151.999 88.3681 151.668 88.5661C151.351 88.7596 151.005 88.9128 150.631 89.0256C149.554 89.3504 148.865 89.1749 148.563 88.4988C147.427 85.871 146.295 83.389 145.166 81.053C144.052 78.7125 142.975 76.5485 141.935 74.561C140.906 72.5541 139.942 70.7394 139.045 69.1169C138.148 67.4944 137.355 66.085 136.668 64.8887C135.996 63.688 135.456 62.7085 135.047 61.9503C134.624 61.1966 134.377 60.7001 134.304 60.4608ZM143.384 64.1852C143.677 65.1575 144.005 66.1111 144.369 67.046C144.728 67.9658 145.157 68.9545 145.655 70.0118C145.948 70.6579 146.43 70.9289 147.1 70.8246C147.516 70.797 147.977 70.756 148.483 70.7013C148.999 70.6272 149.421 70.5406 149.751 70.4413C150.708 70.1525 151.533 69.7487 152.225 69.2299C152.917 68.711 153.461 68.1064 153.857 67.4158C154.248 66.7104 154.482 65.946 154.56 65.1228C154.638 64.2995 154.542 63.4391 154.271 62.5415C153.942 61.4495 153.486 60.4774 152.902 59.6252C152.314 58.758 151.652 58.0518 150.917 57.5067C150.196 56.957 149.423 56.5862 148.598 56.3944C147.788 56.198 146.98 56.2217 146.172 56.4653C145.469 56.6774 144.873 57.0284 144.384 57.5185C143.906 57.9892 143.541 58.5644 143.289 59.2443C143.047 59.9046 142.932 60.6576 142.942 61.5031C142.952 62.3487 143.1 63.2427 143.384 64.1852ZM170.923 48.1922C170.37 48.3592 169.929 48.6554 169.6 49.0809C169.267 49.4915 169.03 50.0037 168.888 50.6175C168.743 51.2163 168.678 51.8966 168.696 52.6584C168.709 53.4052 168.78 54.208 168.908 55.0669C169.037 55.9257 169.214 56.8107 169.44 57.7218C169.666 58.6329 169.916 59.5447 170.191 60.4572C170.552 61.654 170.954 62.8222 171.395 63.962C171.848 65.0823 172.222 66.1361 172.52 67.1234C172.714 67.7667 172.626 68.34 172.256 68.8434C171.89 69.3618 171.265 69.7541 170.383 70.0203C170.218 70.0699 170.027 70.1113 169.808 70.1446C169.59 70.1778 169.37 70.1789 169.148 70.1478C168.942 70.1122 168.739 70.0347 168.54 69.9152C168.36 69.8062 168.222 69.6194 168.126 69.3546C167.594 68.0788 166.994 66.7911 166.324 65.4915C165.655 64.192 164.92 62.9202 164.121 61.6762C163.332 60.4127 162.465 59.189 161.52 58.0051C160.591 56.8167 159.588 55.683 158.512 54.604C158.324 54.4157 158.156 54.2379 158.008 54.0705C157.874 53.8986 157.781 53.7229 157.726 53.5433C157.659 53.3189 157.684 53.0503 157.802 52.7373C157.93 52.4049 158.11 52.0813 158.341 51.7667C158.588 51.4476 158.87 51.1665 159.189 50.9236C159.517 50.6612 159.854 50.4781 160.198 50.3744C160.766 50.2029 161.387 50.4482 162.06 51.1102C162.728 51.7572 163.509 52.8845 164.402 54.4921C164.567 54.7687 164.69 54.9601 164.771 55.0662C164.852 55.1724 164.93 55.2142 165.005 55.1916C165.169 55.142 165.197 54.8561 165.089 54.3339C164.84 52.8586 164.779 51.5469 164.906 50.3989C165.028 49.2358 165.312 48.2282 165.756 47.376C166.212 46.5043 166.811 45.785 167.554 45.2182C168.312 44.6469 169.199 44.2078 170.216 43.901C170.8 43.725 171.407 43.5992 172.036 43.5234C172.666 43.4477 173.252 43.4423 173.794 43.5074C174.336 43.5724 174.802 43.7094 175.191 43.9184C175.581 44.1273 175.832 44.4188 175.944 44.7928C176.026 45.062 176.063 45.4017 176.056 45.8118C176.06 46.2024 176.023 46.5968 175.948 46.995C175.867 47.3783 175.744 47.7257 175.577 48.0372C175.42 48.3293 175.222 48.5114 174.983 48.5836C174.713 48.6648 174.429 48.669 174.129 48.5961C173.826 48.5082 173.497 48.4196 173.144 48.3304C172.805 48.2366 172.449 48.1645 172.075 48.1142C171.711 48.0444 171.327 48.0704 170.923 48.1922ZM178.159 56.1936C178.082 55.9393 178.027 55.6461 177.992 55.3139C177.957 54.9817 177.883 54.6286 177.77 54.2546C177.693 54.0003 177.523 53.8397 177.258 53.7727C177.007 53.7012 176.723 53.6238 176.404 53.5405C176.085 53.4571 175.775 53.3222 175.474 53.1355C175.188 52.9444 174.973 52.6095 174.828 52.1308C174.725 51.7867 174.711 51.4156 174.786 51.0174C174.877 50.6146 175.059 50.217 175.332 49.8245C176.016 48.9001 176.751 48.034 177.535 47.2261C178.335 46.4138 179.152 45.686 179.986 45.0427C180.835 44.3949 181.694 43.8339 182.563 43.3597C183.431 42.8855 184.292 42.5198 185.145 42.2626C186.581 41.8295 188.009 41.6927 189.428 41.8522C190.857 41.9923 192.175 42.3862 193.383 43.034C194.6 43.6622 195.666 44.516 196.579 45.5952C197.502 46.6549 198.176 47.8879 198.6 49.2941C199.015 50.6703 199.118 52.0672 198.909 53.4848C198.711 54.883 198.265 56.1924 197.573 57.4132C196.88 58.6339 195.957 59.7121 194.803 60.6477C193.668 61.5937 192.375 62.2855 190.924 62.7232C189.503 63.1518 188.114 63.3095 186.758 63.1963C185.402 63.083 184.157 62.7407 183.021 62.1691C181.882 61.5826 180.891 60.7879 180.05 59.7849C179.204 58.767 178.574 57.5699 178.159 56.1936ZM190.2 58.5353C190.828 58.3458 191.44 58.0223 192.037 57.565C192.633 57.1077 193.136 56.5562 193.545 55.9105C193.965 55.2454 194.248 54.5072 194.395 53.6958C194.557 52.8799 194.505 52.0307 194.239 51.148C193.968 50.2505 193.551 49.4624 192.987 48.7838C192.423 48.1051 191.764 47.5696 191.009 47.1771C190.265 46.7651 189.446 46.5141 188.554 46.4242C187.677 46.3297 186.782 46.42 185.87 46.6953C184.209 47.1961 183.069 48.0134 182.448 49.1473C181.822 50.2662 181.778 51.7157 182.315 53.4958C182.608 54.4682 183.023 55.3304 183.56 56.0824C184.107 56.8149 184.735 57.4089 185.444 57.8643C186.148 58.3048 186.904 58.591 187.71 58.723C188.532 58.8505 189.362 58.7879 190.2 58.5353ZM208.077 63.6699C208.466 63.5526 208.769 63.3958 208.987 63.1994C209.21 63.018 209.351 62.7551 209.411 62.4108C209.47 62.0665 209.453 61.631 209.359 61.1044C209.266 60.5777 209.099 59.9179 208.86 59.1251C207.935 56.0584 207.027 53.4519 206.135 51.3056C205.257 49.1548 204.462 47.3548 203.747 45.9056C203.033 44.4565 202.425 43.3095 201.926 42.4646C201.437 41.6003 201.12 40.9288 200.976 40.4501C200.822 39.9415 200.93 39.4602 201.299 39.0062C201.668 38.5521 202.252 38.1883 203.051 37.9148C204.202 37.5674 205 37.6942 205.442 38.2951C206.076 39.2625 206.731 40.4035 207.405 41.718C208.089 43.013 208.762 44.4338 209.425 45.9803C210.102 47.5223 210.749 49.1549 211.367 50.8781C211.995 52.5818 212.575 54.3163 213.108 56.0815C213.672 57.9514 214.033 59.556 214.192 60.8952C214.371 62.2449 214.316 63.3876 214.027 64.3234C213.753 65.2547 213.246 66.0112 212.508 66.593C211.774 67.1897 210.786 67.6753 209.545 68.0498C208.812 68.2709 208.012 68.406 207.145 68.4552C206.298 68.5148 205.446 68.5026 204.588 68.4186C203.735 68.3495 202.909 68.207 202.109 67.9912C201.295 67.7799 200.563 67.5191 199.915 67.2087C199.256 66.9179 198.705 66.5782 198.261 66.1897C197.803 65.8058 197.506 65.3894 197.37 64.9406C197.303 64.7162 197.316 64.4349 197.41 64.0965C197.503 63.7581 197.647 63.4212 197.839 63.0856C198.021 62.7696 198.237 62.4842 198.487 62.2294C198.736 61.9746 198.981 61.8111 199.22 61.7389C199.504 61.6532 199.835 61.6677 200.212 61.7823C200.575 61.9015 200.983 62.0641 201.436 62.2699C201.875 62.4803 202.351 62.7041 202.863 62.9413C203.36 63.183 203.888 63.391 204.447 63.5653C205.02 63.7351 205.608 63.8434 206.209 63.8904C206.811 63.9375 207.433 63.8639 208.077 63.6699ZM202.353 34.0613C201.915 34.1772 201.489 34.2242 201.074 34.2024C200.674 34.176 200.306 34.0913 199.969 33.9481C199.628 33.79 199.33 33.5861 199.075 33.3366C198.83 33.0675 198.654 32.7535 198.546 32.3945C198.356 31.7662 198.442 31.1854 198.804 30.652C199.165 30.1187 199.75 29.7302 200.558 29.4866C200.961 29.3648 201.365 29.3245 201.77 29.3658C202.184 29.3877 202.572 29.4829 202.933 29.6515C203.289 29.8051 203.599 30.0216 203.863 30.3011C204.123 30.5656 204.306 30.8774 204.415 31.2364C204.609 31.8797 204.528 32.4507 204.172 32.9496C203.812 33.4336 203.206 33.8041 202.353 34.0613ZM234.977 41.8232C235.298 41.3184 235.668 41.0028 236.087 40.8765C236.326 40.8043 236.561 40.7987 236.791 40.8597C237.022 40.9207 237.295 41.0423 237.611 41.2244C237.939 41.5008 238.182 41.7377 238.34 41.935C238.508 42.1128 238.623 42.3065 238.686 42.5159C238.822 42.9647 238.726 43.4587 238.399 43.998C237.861 44.8129 237.246 45.5861 236.552 46.3175C235.855 47.0339 235.099 47.6942 234.286 48.2986C233.473 48.9029 232.605 49.434 231.682 49.8918C230.764 50.3646 229.826 50.7454 228.868 51.0341C227.657 51.3996 226.472 51.5854 225.316 51.5916C224.163 51.6128 223.082 51.4654 222.073 51.1496C221.079 50.8293 220.178 50.3585 219.371 49.7371C218.558 49.1007 217.882 48.3175 217.34 47.3874C217.079 47.0092 216.871 46.7783 216.715 46.6947C216.569 46.5916 216.37 46.5784 216.115 46.6551C215.562 46.8221 215.095 46.816 214.715 46.637C214.334 46.458 214.067 46.1142 213.914 45.6055C213.851 45.3961 213.825 45.257 213.837 45.1881L213.746 44.7258C213.659 44.1647 213.684 43.7329 213.821 43.4304C213.973 43.1233 214.281 42.8999 214.745 42.76L215.081 42.6585C215.71 42.469 216.063 42.0442 216.141 41.3841C216.294 40.212 216.6 39.0913 217.061 38.0221C217.522 36.9528 218.111 35.9837 218.828 35.1146C219.541 34.2305 220.356 33.4705 221.274 32.8346C222.202 32.1792 223.198 31.6914 224.26 31.371C225.367 31.0371 226.449 30.8904 227.505 30.9307C228.572 30.9516 229.551 31.138 230.44 31.4899C231.33 31.8418 232.091 32.3383 232.725 32.9794C233.374 33.616 233.832 34.3756 234.098 35.2582C234.283 35.8715 234.333 36.4686 234.247 37.0494C234.161 37.6302 233.952 38.1827 233.621 38.707C233.285 39.2164 232.831 39.6877 232.26 40.1211C231.704 40.55 231.033 40.9236 230.248 41.242L222.699 44.3758C222.399 44.4661 222.175 44.6153 222.026 44.8236C221.891 45.0273 221.862 45.2563 221.939 45.5106C222.057 45.8996 222.311 46.2307 222.704 46.504C223.111 46.7728 223.597 46.9771 224.162 47.117C224.737 47.2373 225.363 47.285 226.041 47.2601C226.734 47.2306 227.417 47.1144 228.09 46.9114C228.733 46.7174 229.373 46.459 230.011 46.1363C230.658 45.7941 231.275 45.4041 231.861 44.9662C232.462 44.5238 233.027 44.0433 233.556 43.5247C234.08 42.9912 234.554 42.424 234.977 41.8232ZM228.227 37.5432C228.438 37.4306 228.6 37.2672 228.715 37.0531C228.826 36.8239 228.843 36.5822 228.766 36.3279C228.698 36.1035 228.553 35.9189 228.33 35.774C228.106 35.6292 227.83 35.5248 227.501 35.461C227.167 35.3821 226.799 35.3542 226.398 35.3773C225.997 35.4003 225.587 35.475 225.168 35.6013C224.555 35.7863 223.954 36.0656 223.365 36.4391C222.776 36.8126 222.264 37.2279 221.831 37.685C221.393 38.1272 221.064 38.5774 220.843 39.0357C220.618 39.479 220.557 39.8727 220.661 40.2168C220.765 40.5608 221.026 40.6697 221.445 40.5434C221.699 40.4667 222.101 40.3127 222.652 40.0814C223.202 39.8501 223.81 39.5933 224.476 39.3109C225.137 39.0136 225.803 38.7066 226.475 38.3898C227.146 38.0731 227.73 37.7908 228.227 37.5432ZM243.441 24.4352C244.219 24.2005 245.008 24.0849 245.809 24.0882C246.61 24.0915 247.346 24.2042 248.016 24.4262C248.698 24.6287 249.285 24.9249 249.778 25.3148C250.266 25.6897 250.587 26.1315 250.74 26.6401C250.84 26.9692 250.869 27.3111 250.83 27.6659C250.785 28.0057 250.687 28.3291 250.535 28.6361C250.378 28.9282 250.18 29.1919 249.941 29.4272C249.697 29.6476 249.418 29.8051 249.104 29.8999C248.76 30.0037 248.408 29.9713 248.047 29.8027C247.681 29.6191 247.287 29.4199 246.863 29.205C246.449 28.9707 246.002 28.7872 245.522 28.6548C245.052 28.5028 244.54 28.5103 243.986 28.6772C243.448 28.8397 243 29.1134 242.643 29.4986C242.286 29.8838 242.027 30.3533 241.868 30.9073C241.719 31.4418 241.657 32.048 241.682 32.7259C241.718 33.3844 241.846 34.0801 242.067 34.8131C242.699 36.9075 243.578 38.3886 244.705 39.2564C245.827 40.1093 247.128 40.3124 248.609 39.8658C249.312 39.6537 249.877 39.361 250.303 38.9878C250.744 38.61 251.111 38.23 251.404 37.848C251.711 37.4614 251.988 37.1085 252.235 36.7894C252.481 36.4702 252.769 36.261 253.098 36.1618C253.278 36.1076 253.475 36.1133 253.691 36.1789C253.902 36.2294 254.102 36.3242 254.291 36.4631C254.49 36.5825 254.666 36.7334 254.819 36.9158C254.987 37.0936 255.102 37.2873 255.165 37.4967C255.314 37.9904 255.221 38.5734 254.885 39.2459C254.564 39.9138 254.088 40.5798 253.456 41.2437C252.819 41.8927 252.07 42.4939 251.209 43.0475C250.363 43.5965 249.498 44.0041 248.616 44.2703C247.434 44.6267 246.28 44.7219 245.152 44.556C244.03 44.405 242.988 44.0339 242.026 43.4426C241.06 42.8364 240.203 42.0258 239.456 41.0107C238.724 39.9911 238.151 38.7932 237.736 37.4169C237.285 35.921 237.087 34.4793 237.141 33.0918C237.211 31.6999 237.497 30.4303 238 29.2832C238.513 28.1166 239.232 27.1165 240.155 26.2831C241.074 25.4346 242.17 24.8187 243.441 24.4352ZM250.991 14.0795C250.752 13.2866 250.81 12.6655 251.164 12.216C251.513 11.7515 252.204 11.3636 253.236 11.0523C253.61 10.9395 253.936 10.8821 254.213 10.8802C254.5 10.8589 254.76 10.9108 254.994 11.0362C255.243 11.1571 255.464 11.3513 255.659 11.6189C255.865 11.867 256.073 12.2042 256.283 12.6304C256.882 13.9675 257.509 15.345 258.166 16.7628C258.837 18.1761 259.517 19.5946 260.208 21.0184C260.501 21.6645 260.954 21.895 261.567 21.71C261.732 21.6604 261.996 21.5642 262.361 21.4215C262.737 21.2593 263.18 21.0768 263.69 20.874C264.195 20.6563 264.738 20.4273 265.318 20.1869C265.914 19.9421 266.504 19.707 267.089 19.4817C267.684 19.2369 268.246 19.0183 268.776 18.8259C269.316 18.6141 269.795 18.445 270.214 18.3187C270.543 18.2194 270.825 18.2078 271.06 18.2838C271.291 18.3448 271.49 18.4642 271.658 18.6421C271.836 18.8005 271.979 19.0023 272.085 19.2476C272.202 19.4734 272.299 19.7135 272.376 19.9678C272.444 20.1922 272.469 20.4376 272.451 20.704C272.449 20.9659 272.402 21.2166 272.311 21.4562C272.23 21.6764 272.103 21.8778 271.93 22.0607C271.757 22.2435 271.535 22.3755 271.266 22.4568C269.965 22.8493 268.662 23.2912 267.358 23.7825C266.064 24.2544 264.779 24.7561 263.503 25.2878C262.857 25.5806 262.622 26.0187 262.798 26.6021C262.811 26.647 262.837 26.7046 262.874 26.7749C262.907 26.8302 262.931 26.8803 262.944 26.9252C263.516 28.1725 264.049 29.3421 264.541 30.4339C265.048 31.5211 265.49 32.4978 265.865 33.3638C266.251 34.2103 266.564 34.9237 266.805 35.504C267.055 36.0649 267.21 36.4425 267.269 36.637C267.431 37.1755 267.514 37.6401 267.518 38.0307C267.526 38.4363 267.444 38.7874 267.272 39.0839C267.105 39.3955 266.833 39.657 266.456 39.8686C266.099 40.0906 265.621 40.2919 265.023 40.4724C264.454 40.6438 263.995 40.6355 263.644 40.4475C263.294 40.2594 263.02 39.8931 262.823 39.3487C262.201 37.6105 261.524 35.8807 260.793 34.1592C260.057 32.4227 259.294 30.7028 258.502 28.9993C258.174 28.3966 257.74 28.1765 257.202 28.339C257.157 28.3525 257.107 28.3758 257.051 28.4088C256.996 28.4418 256.946 28.465 256.901 28.4786C256.037 28.9678 255.225 29.4411 254.465 29.8987C253.705 30.3563 253.003 30.8131 252.357 31.269C251.994 31.5254 251.664 31.7309 251.368 31.8855C251.067 32.0252 250.79 32.1333 250.535 32.21C250.191 32.3138 249.892 32.2409 249.637 31.9914C249.378 31.7268 249.178 31.3627 249.038 30.899C248.989 30.7344 248.947 30.5429 248.914 30.3245C248.876 30.091 248.871 29.8561 248.897 29.6196C248.904 29.3726 248.963 29.1346 249.074 28.9054C249.165 28.6658 249.327 28.4456 249.56 28.2447C250.111 27.8009 250.87 27.2865 251.836 26.7014C252.798 26.1013 253.9 25.4831 255.145 24.8467C255.421 24.6816 255.617 24.492 255.732 24.2778C255.857 24.0442 255.868 23.7553 255.764 23.4113C255.742 23.3365 255.719 23.2617 255.697 23.1869C255.67 23.0971 255.628 23.0119 255.571 22.9311C254.916 21.6271 254.307 20.4479 253.745 19.3936C253.192 18.3199 252.712 17.4039 252.304 16.6457C251.911 15.883 251.599 15.2834 251.37 14.8467C251.14 14.41 251.014 14.1543 250.991 14.0795ZM67.4484 139.353C67.5172 139.365 67.6115 139.353 67.7312 139.317C68.0603 139.218 68.1594 138.951 68.0286 138.517L65.9238 131.539C65.6576 130.656 65.6625 129.969 65.9387 129.478C66.2298 128.982 66.8391 128.594 67.7666 128.315C68.709 128.03 69.4334 128.024 69.9396 128.296C70.4459 128.567 70.8411 129.174 71.1254 130.117C71.2337 130.476 71.3714 131.014 71.5386 131.73C71.7012 132.432 71.8858 133.233 72.0921 134.134C72.3134 135.03 72.5551 135.993 72.817 137.024C73.0744 138.04 73.352 139.042 73.6498 140.029C74.11 141.555 74.6118 142.84 75.1551 143.883C75.6984 144.927 76.2751 145.757 76.8851 146.373C77.4906 146.974 78.1168 147.372 78.7636 147.569C79.4059 147.75 80.0637 147.74 80.7368 147.537C81.1108 147.424 81.4339 147.278 81.706 147.098C81.9885 146.898 82.3393 146.735 82.7581 146.609C83.0573 146.519 83.3515 146.601 83.6407 146.857C83.9404 147.093 84.1557 147.428 84.2865 147.861C84.4038 148.25 84.3947 148.653 84.2591 149.069C84.1385 149.481 83.9146 149.875 83.5874 150.251C83.2751 150.623 82.8798 150.962 82.4013 151.27C81.9183 151.562 81.3926 151.794 80.8242 151.966C79.5975 152.336 78.3628 152.3 77.1199 151.859C75.8726 151.403 74.76 150.474 73.7821 149.071C73.6651 148.845 73.5542 148.748 73.4494 148.78C73.3298 148.816 73.2686 148.965 73.266 149.227C73.1915 150.441 72.9582 151.588 72.5662 152.669C72.1846 153.731 71.6548 154.707 70.9766 155.597C70.3089 156.467 69.5086 157.223 68.5757 157.863C67.6577 158.499 66.6303 158.989 65.4933 159.331C64.2966 159.692 63.1362 159.822 62.0121 159.72C60.9074 159.629 59.8901 159.34 58.96 158.854C58.0253 158.352 57.2117 157.684 56.519 156.848C55.8218 155.998 55.3041 155.012 54.9657 153.89C54.5325 152.454 54.4234 151.009 54.6383 149.557C54.8531 148.105 55.3271 146.755 56.06 145.506C56.8035 144.237 57.7724 143.12 58.9668 142.156C60.1611 141.192 61.5287 140.478 63.0695 140.013C63.6978 139.824 64.3793 139.675 65.114 139.568C65.8441 139.446 66.6223 139.374 67.4484 139.353ZM65.1503 155.028C66.0029 154.771 66.702 154.356 67.2474 153.784C67.8078 153.207 68.2566 152.558 68.5937 151.836C68.9413 151.094 69.1909 150.325 69.3424 149.529C69.4893 148.718 69.5758 147.949 69.6016 147.223C69.6275 146.497 69.6138 145.857 69.5606 145.302C69.5074 144.746 69.447 144.357 69.3793 144.132C69.3297 143.968 69.2419 143.839 69.1161 143.746C68.9857 143.639 68.8195 143.575 68.6174 143.554C68.1819 143.571 67.736 143.608 67.2796 143.664C66.8187 143.705 66.3698 143.759 65.9329 143.825C65.496 143.892 65.0786 143.969 64.6806 144.056C64.2976 144.139 63.949 144.228 63.6349 144.323C62.7373 144.593 61.9626 144.974 61.3108 145.464C60.659 145.954 60.1458 146.525 59.7711 147.177C59.4114 147.824 59.1932 148.535 59.1165 149.308C59.0353 150.067 59.1165 150.851 59.3602 151.658C59.5767 152.376 59.8777 152.996 60.2631 153.516C60.6589 154.017 61.1048 154.413 61.6006 154.704C62.1113 154.99 62.6698 155.165 63.276 155.227C63.8823 155.289 64.507 155.223 65.1503 155.028ZM101.924 141.489C102.245 140.984 102.615 140.669 103.034 140.542C103.274 140.47 103.508 140.465 103.739 140.526C103.97 140.587 104.243 140.708 104.559 140.89C104.887 141.167 105.13 141.404 105.287 141.601C105.455 141.779 105.571 141.972 105.634 142.182C105.769 142.631 105.673 143.125 105.347 143.664C104.809 144.479 104.193 145.252 103.5 145.983C102.802 146.7 102.047 147.36 101.233 147.964C100.42 148.569 99.5522 149.1 98.6295 149.558C97.7113 150.03 96.7734 150.411 95.816 150.7C94.6043 151.065 93.42 151.251 92.2632 151.257C91.1108 151.279 90.0301 151.131 89.0209 150.816C88.0267 150.495 87.1258 150.024 86.3182 149.403C85.5061 148.767 84.8292 147.983 84.2876 147.053C84.0266 146.675 83.8182 146.444 83.6624 146.361C83.5171 146.257 83.3173 146.244 83.063 146.321C82.5095 146.488 82.0426 146.482 81.6622 146.303C81.2817 146.124 81.0148 145.78 80.8614 145.271C80.7983 145.062 80.7726 144.923 80.7845 144.854L80.694 144.392C80.6064 143.831 80.6312 143.399 80.7684 143.096C80.9206 142.789 81.2286 142.566 81.6924 142.426L82.0289 142.324C82.6572 142.135 83.0106 141.71 83.0889 141.05C83.2413 139.878 83.548 138.757 84.0088 137.688C84.4697 136.619 85.0587 135.65 85.7758 134.78C86.4884 133.896 87.3036 133.136 88.2216 132.5C89.15 131.845 90.1453 131.357 91.2074 131.037C92.3144 130.703 93.3963 130.556 94.4529 130.597C95.52 130.617 96.4983 130.804 97.3878 131.156C98.2773 131.508 99.0391 132.004 99.6731 132.645C100.322 133.282 100.78 134.041 101.046 134.924C101.231 135.537 101.28 136.134 101.194 136.715C101.108 137.296 100.9 137.849 100.568 138.373C100.232 138.882 99.7788 139.354 99.2077 139.787C98.6516 140.216 97.9809 140.589 97.1957 140.908L89.6462 144.042C89.347 144.132 89.1227 144.281 88.9734 144.489C88.839 144.693 88.8101 144.922 88.8868 145.177C89.0042 145.565 89.2591 145.897 89.6516 146.17C90.0591 146.439 90.545 146.643 91.1094 146.783C91.6843 146.903 92.3107 146.951 92.9886 146.926C93.6815 146.897 94.3645 146.78 95.0377 146.577C95.681 146.383 96.3211 146.125 96.9582 145.802C97.6057 145.46 98.2225 145.07 98.8085 144.632C99.4095 144.19 99.9745 143.709 100.504 143.191C101.028 142.657 101.502 142.09 101.924 141.489ZM95.1743 137.209C95.3852 137.096 95.5481 136.933 95.663 136.719C95.7734 136.49 95.7902 136.248 95.7135 135.994C95.6459 135.769 95.5004 135.585 95.2772 135.44C95.054 135.295 94.7777 135.191 94.4484 135.127C94.1145 135.048 93.7471 135.02 93.346 135.043C92.9449 135.066 92.535 135.141 92.1161 135.267C91.5028 135.452 90.9016 135.731 90.3125 136.105C89.7233 136.478 89.2121 136.894 88.7788 137.351C88.3409 137.793 88.0116 138.243 87.7908 138.702C87.5654 139.145 87.5046 139.539 87.6084 139.883C87.7122 140.227 87.9735 140.336 88.3924 140.209C88.6467 140.133 89.049 139.979 89.5995 139.747C90.1499 139.516 90.7579 139.259 91.4234 138.977C92.0845 138.68 92.7508 138.372 93.4223 138.056C94.0938 137.739 94.6778 137.457 95.1743 137.209ZM107.764 123.84C108.767 123.538 109.839 123.361 110.983 123.31C112.121 123.244 113.195 123.287 114.204 123.44C115.209 123.578 116.072 123.815 116.794 124.152C117.516 124.489 117.949 124.897 118.093 125.376C118.165 125.615 118.142 125.916 118.023 126.279C117.899 126.626 117.728 126.979 117.51 127.339C117.288 127.683 117.024 128 116.719 128.287C116.425 128.556 116.143 128.731 115.873 128.812C115.514 128.92 115.065 128.892 114.526 128.728C114.002 128.56 113.417 128.378 112.77 128.181C112.134 127.965 111.456 127.802 110.738 127.692C110.019 127.583 109.293 127.638 108.56 127.859C108.082 128.004 107.721 128.243 107.479 128.577C107.248 128.892 107.195 129.259 107.322 129.677C107.434 130.051 107.729 130.379 108.205 130.659C108.677 130.925 109.266 131.172 109.971 131.4C110.691 131.623 111.493 131.847 112.376 132.07C113.26 132.293 114.167 132.542 115.098 132.816C116.044 133.085 116.982 133.406 117.91 133.779C118.839 134.152 119.701 134.602 120.496 135.129C121.306 135.651 122.018 136.277 122.629 137.007C123.236 137.721 123.687 138.565 123.98 139.537C124.233 140.375 124.313 141.183 124.221 141.961C124.13 142.74 123.882 143.459 123.477 144.12C123.072 144.78 122.529 145.36 121.848 145.86C121.166 146.359 120.369 146.746 119.456 147.022C118.304 147.369 117.188 147.51 116.107 147.444C115.031 147.393 114.049 147.167 113.161 146.766C112.273 146.365 111.498 145.799 110.837 145.068C110.191 144.332 109.715 143.456 109.408 142.439C109.011 141.122 108.954 140.095 109.237 139.357C109.536 138.614 110.193 138.089 111.211 137.783C111.839 137.593 112.376 137.562 112.822 137.688C113.268 137.815 113.543 138.05 113.647 138.394C113.701 138.574 113.728 138.77 113.727 138.982C113.721 139.18 113.712 139.394 113.701 139.626C113.699 139.839 113.703 140.066 113.711 140.309C113.733 140.547 113.779 140.778 113.846 141.002C113.964 141.391 114.166 141.738 114.454 142.043C114.742 142.348 115.076 142.59 115.456 142.769C115.856 142.958 116.283 143.075 116.736 143.117C117.19 143.16 117.641 143.114 118.09 142.978C119.287 142.617 119.736 141.943 119.438 140.956C119.204 140.178 118.676 139.538 117.855 139.034C117.03 138.516 116.054 138.068 114.928 137.689C113.797 137.296 112.592 136.925 111.312 136.577C110.047 136.224 108.84 135.821 107.691 135.368C106.543 134.914 105.538 134.369 104.676 133.731C103.81 133.078 103.231 132.266 102.937 131.293C102.694 130.486 102.635 129.696 102.761 128.923C102.902 128.146 103.192 127.43 103.631 126.776C104.066 126.106 104.631 125.519 105.328 125.015C106.04 124.507 106.852 124.115 107.764 123.84ZM127.308 118.998C128.086 118.763 128.875 118.648 129.676 118.651C130.477 118.654 131.212 118.767 131.883 118.989C132.564 119.192 133.151 119.488 133.644 119.878C134.133 120.253 134.454 120.694 134.607 121.203C134.706 121.532 134.736 121.874 134.696 122.229C134.652 122.569 134.554 122.892 134.401 123.199C134.245 123.491 134.047 123.755 133.808 123.99C133.564 124.211 133.285 124.368 132.971 124.463C132.627 124.567 132.274 124.534 131.913 124.366C131.548 124.182 131.153 123.983 130.73 123.768C130.316 123.534 129.869 123.35 129.389 123.218C128.918 123.066 128.407 123.073 127.853 123.24C127.314 123.403 126.867 123.676 126.51 124.062C126.152 124.447 125.894 124.916 125.735 125.47C125.586 126.005 125.524 126.611 125.549 127.289C125.584 127.947 125.713 128.643 125.934 129.376C126.565 131.47 127.445 132.951 128.571 133.819C129.694 134.672 130.995 134.875 132.476 134.429C133.179 134.217 133.744 133.924 134.17 133.551C134.611 133.173 134.977 132.793 135.27 132.411C135.578 132.024 135.855 131.671 136.102 131.352C136.348 131.033 136.636 130.824 136.965 130.725C137.144 130.671 137.342 130.676 137.558 130.742C137.769 130.792 137.969 130.887 138.157 131.026C138.357 131.145 138.533 131.296 138.686 131.479C138.854 131.657 138.969 131.85 139.032 132.06C139.181 132.553 139.088 133.136 138.752 133.809C138.431 134.477 137.955 135.143 137.323 135.807C136.686 136.456 135.937 137.057 135.076 137.61C134.23 138.159 133.365 138.567 132.483 138.833C131.301 139.19 130.146 139.285 129.019 139.119C127.896 138.968 126.854 138.597 125.893 138.006C124.926 137.399 124.07 136.589 123.323 135.574C122.591 134.554 122.018 133.356 121.603 131.98C121.151 130.484 120.953 129.042 121.008 127.655C121.078 126.263 121.364 124.993 121.867 123.846C122.38 122.68 123.098 121.679 124.022 120.846C124.941 119.998 126.036 119.382 127.308 118.998ZM147.688 114.736C147.134 114.903 146.693 115.2 146.365 115.625C146.031 116.036 145.794 116.548 145.653 117.162C145.507 117.76 145.443 118.441 145.461 119.203C145.474 119.949 145.544 120.752 145.673 121.611C145.801 122.47 145.979 123.355 146.204 124.266C146.43 125.177 146.681 126.089 146.956 127.001C147.317 128.198 147.718 129.366 148.16 130.506C148.612 131.626 148.987 132.68 149.285 133.668C149.479 134.311 149.391 134.884 149.02 135.388C148.654 135.906 148.03 136.298 147.147 136.564C146.983 136.614 146.791 136.655 146.573 136.689C146.354 136.722 146.134 136.723 145.913 136.692C145.706 136.656 145.503 136.579 145.304 136.459C145.124 136.35 144.987 136.164 144.89 135.899C144.359 134.623 143.758 133.335 143.089 132.036C142.419 130.736 141.685 129.464 140.885 128.22C140.096 126.957 139.229 125.733 138.285 124.549C137.355 123.361 136.352 122.227 135.276 121.148C135.089 120.96 134.921 120.782 134.772 120.615C134.639 120.443 134.545 120.267 134.491 120.087C134.423 119.863 134.448 119.594 134.566 119.281C134.694 118.949 134.874 118.625 135.106 118.311C135.352 117.992 135.635 117.711 135.953 117.468C136.282 117.205 136.618 117.022 136.963 116.919C137.531 116.747 138.152 116.992 138.825 117.654C139.493 118.301 140.274 119.429 141.167 121.036C141.332 121.313 141.455 121.504 141.536 121.61C141.617 121.717 141.694 121.758 141.769 121.736C141.934 121.686 141.962 121.4 141.853 120.878C141.604 119.403 141.543 118.091 141.67 116.943C141.793 115.78 142.076 114.772 142.521 113.92C142.976 113.048 143.575 112.329 144.318 111.762C145.076 111.191 145.964 110.752 146.981 110.445C147.564 110.269 148.171 110.143 148.801 110.068C149.431 109.992 150.017 109.986 150.559 110.052C151.101 110.117 151.566 110.254 151.956 110.463C152.345 110.671 152.596 110.963 152.709 111.337C152.79 111.606 152.827 111.946 152.821 112.356C152.824 112.747 152.788 113.141 152.712 113.539C152.632 113.922 152.508 114.27 152.341 114.581C152.184 114.873 151.986 115.056 151.747 115.128C151.478 115.209 151.193 115.213 150.894 115.14C150.59 115.052 150.261 114.964 149.908 114.875C149.57 114.781 149.213 114.709 148.839 114.658C148.475 114.589 148.092 114.615 147.688 114.736ZM153.342 106.372C152.908 106.503 152.478 106.568 152.053 106.565C151.639 106.543 151.255 106.463 150.903 106.324C150.562 106.166 150.262 105.955 150.002 105.69C149.743 105.426 149.557 105.107 149.444 104.733C149.255 104.104 149.348 103.521 149.724 102.984C150.116 102.441 150.73 102.044 151.568 101.791C151.957 101.674 152.354 101.636 152.758 101.677C153.157 101.703 153.528 101.796 153.869 101.954C154.226 102.107 154.536 102.324 154.8 102.603C155.059 102.868 155.24 103.172 155.344 103.516C155.538 104.16 155.452 104.74 155.086 105.259C154.731 105.758 154.149 106.129 153.342 106.372ZM152.332 114.144C152.174 113.62 152.269 113.126 152.619 112.662C152.979 112.178 153.533 111.823 154.281 111.597C155.627 111.191 156.485 111.438 156.855 112.339C157.108 112.964 157.387 113.671 157.691 114.461C158.009 115.246 158.336 116.086 158.671 116.981C159.016 117.856 159.358 118.773 159.696 119.732C160.045 120.671 160.384 121.605 160.713 122.534C161.038 123.448 161.346 124.334 161.637 125.193C161.929 126.051 162.183 126.84 162.4 127.558C162.625 128.306 162.525 128.948 162.099 129.484C161.689 130.016 160.975 130.436 159.957 130.742C159.494 130.882 159.093 130.881 158.756 130.737C158.439 130.605 158.217 130.329 158.091 129.91C157.468 127.846 156.834 125.932 156.187 124.168C155.552 122.385 154.962 120.809 154.418 119.439C153.889 118.064 153.433 116.929 153.048 116.033C152.674 115.117 152.435 114.488 152.332 114.144ZM159.941 112.265C159.765 111.681 159.894 111.161 160.327 110.704C160.756 110.232 161.457 109.849 162.429 109.556C162.654 109.488 162.864 109.457 163.062 109.463C163.26 109.469 163.453 109.541 163.642 109.68C163.841 109.799 164.045 109.99 164.255 110.254C164.465 110.517 164.7 110.862 164.959 111.29C165.237 111.777 165.436 112.003 165.555 111.967C165.66 111.935 165.722 111.68 165.741 111.201C165.753 110.267 165.881 109.421 166.125 108.661C166.38 107.883 166.721 107.201 167.148 106.615C167.571 106.014 168.072 105.512 168.652 105.108C169.247 104.701 169.904 104.388 170.622 104.172C172.073 103.734 173.51 103.602 174.934 103.777C176.353 103.936 177.665 104.365 178.871 105.062C180.072 105.744 181.133 106.664 182.054 107.823C182.97 108.967 183.658 110.301 184.118 111.827C184.606 113.443 184.773 115.024 184.619 116.572C184.481 118.115 184.062 119.539 183.362 120.844C182.657 122.133 181.693 123.265 180.468 124.238C179.264 125.221 177.838 125.961 176.193 126.458L175.035 126.758C174.362 126.961 174.14 127.444 174.37 128.207L178.621 138.161C178.683 138.42 178.663 138.679 178.562 138.938C178.48 139.208 178.329 139.465 178.109 139.711C177.905 139.952 177.636 140.172 177.304 140.37C176.987 140.563 176.642 140.717 176.268 140.829C175.191 141.154 174.501 140.979 174.2 140.303C173.064 137.675 171.932 135.193 170.803 132.857C169.689 130.516 168.612 128.352 167.572 126.365C166.543 124.358 165.579 122.543 164.682 120.921C163.784 119.298 162.992 117.889 162.305 116.693C161.633 115.492 161.092 114.512 160.684 113.754C160.261 113 160.013 112.504 159.941 112.265ZM169.021 115.989C169.314 116.961 169.642 117.915 170.006 118.85C170.365 119.77 170.794 120.758 171.292 121.816C171.585 122.462 172.066 122.733 172.737 122.628C173.153 122.601 173.614 122.56 174.119 122.505C174.636 122.431 175.058 122.344 175.387 122.245C176.345 121.956 177.17 121.553 177.862 121.034C178.554 120.515 179.098 119.91 179.493 119.22C179.885 118.514 180.119 117.75 180.197 116.927C180.275 116.103 180.179 115.243 179.908 114.345C179.579 113.253 179.123 112.281 178.539 111.429C177.951 110.562 177.289 109.856 176.554 109.311C175.833 108.761 175.06 108.39 174.235 108.198C173.425 108.002 172.616 108.025 171.809 108.269C171.106 108.481 170.51 108.832 170.021 109.322C169.543 109.793 169.178 110.368 168.926 111.048C168.684 111.708 168.569 112.461 168.579 113.307C168.589 114.153 168.736 115.047 169.021 115.989ZM183.73 93.9021C183.491 93.1093 183.549 92.4881 183.903 92.0386C184.252 91.5741 184.943 91.1862 185.975 90.8749C186.349 90.7621 186.675 90.7048 186.952 90.7028C187.239 90.6815 187.499 90.7335 187.733 90.8588C187.982 90.9797 188.203 91.1739 188.398 91.4415C188.604 91.6897 188.812 92.0268 189.022 92.4531C189.621 93.7901 190.248 95.1676 190.905 96.5854C191.576 97.9987 192.256 99.4172 192.947 100.841C193.24 101.487 193.693 101.718 194.306 101.533C194.471 101.483 194.736 101.387 195.1 101.244C195.476 101.082 195.919 100.899 196.429 100.697C196.934 100.479 197.477 100.25 198.057 100.01C198.653 99.7647 199.243 99.5297 199.828 99.3043C200.423 99.0595 200.985 98.8409 201.515 98.6485C202.055 98.4367 202.534 98.2677 202.953 98.1413C203.282 98.0421 203.564 98.0304 203.799 98.1064C204.03 98.1674 204.229 98.2869 204.397 98.4647C204.575 98.6231 204.718 98.8249 204.824 99.0702C204.942 99.296 205.038 99.5361 205.115 99.7904C205.183 100.015 205.208 100.26 205.19 100.527C205.188 100.789 205.141 101.039 205.05 101.279C204.969 101.499 204.843 101.7 204.669 101.883C204.496 102.066 204.275 102.198 204.005 102.279C202.704 102.672 201.401 103.114 200.097 103.605C198.803 104.077 197.518 104.579 196.242 105.11C195.596 105.403 195.361 105.841 195.537 106.425C195.55 106.47 195.576 106.527 195.613 106.597C195.646 106.653 195.67 106.703 195.683 106.748C196.255 107.995 196.788 109.165 197.28 110.256C197.788 111.344 198.229 112.32 198.604 113.186C198.99 114.033 199.303 114.746 199.544 115.327C199.794 115.887 199.949 116.265 200.008 116.46C200.17 116.998 200.253 117.463 200.257 117.853C200.265 118.259 200.183 118.61 200.011 118.907C199.844 119.218 199.572 119.48 199.195 119.691C198.838 119.913 198.36 120.115 197.762 120.295C197.193 120.466 196.734 120.458 196.383 120.27C196.033 120.082 195.759 119.716 195.562 119.171C194.94 117.433 194.263 115.703 193.532 113.982C192.796 112.245 192.033 110.525 191.241 108.822C190.913 108.219 190.479 107.999 189.941 108.162C189.896 108.175 189.846 108.198 189.79 108.231C189.735 108.264 189.685 108.288 189.64 108.301C188.776 108.79 187.964 109.264 187.204 109.721C186.445 110.179 185.742 110.636 185.096 111.092C184.733 111.348 184.403 111.554 184.107 111.708C183.806 111.848 183.529 111.956 183.274 112.033C182.93 112.136 182.631 112.064 182.376 111.814C182.117 111.549 181.917 111.185 181.777 110.722C181.728 110.557 181.686 110.366 181.653 110.147C181.615 109.914 181.61 109.679 181.636 109.442C181.644 109.195 181.702 108.957 181.813 108.728C181.904 108.488 182.066 108.268 182.299 108.067C182.85 107.624 183.609 107.109 184.575 106.524C185.537 105.924 186.639 105.306 187.884 104.669C188.16 104.504 188.356 104.315 188.471 104.1C188.596 103.867 188.607 103.578 188.503 103.234C188.481 103.159 188.458 103.084 188.436 103.009C188.409 102.92 188.367 102.834 188.31 102.754C187.655 101.45 187.047 100.271 186.484 99.2162C185.931 98.1425 185.451 97.2265 185.043 96.4683C184.65 95.7057 184.338 95.106 184.109 94.6693C183.879 94.2326 183.753 93.9769 183.73 93.9021ZM204.682 90.8877C204.248 91.0186 203.819 91.0828 203.394 91.0804C202.979 91.0586 202.596 90.9783 202.244 90.8397C201.903 90.6815 201.602 90.4702 201.343 90.2057C201.084 89.9412 200.898 89.6219 200.785 89.2479C200.595 88.6197 200.689 88.0366 201.065 87.4987C201.456 86.9564 202.071 86.5589 202.909 86.3062C203.298 86.1889 203.694 86.1509 204.098 86.1922C204.498 86.2186 204.868 86.3108 205.21 86.469C205.566 86.6226 205.876 86.8391 206.14 87.1186C206.4 87.3831 206.581 87.6874 206.685 88.0315C206.879 88.6747 206.793 89.2555 206.427 89.7739C206.072 90.2728 205.49 90.6441 204.682 90.8877ZM203.672 98.6588C203.514 98.1353 203.61 97.6412 203.96 97.1768C204.32 96.6928 204.874 96.3381 205.622 96.1125C206.968 95.7064 207.826 95.9536 208.195 96.854C208.449 97.4792 208.728 98.1867 209.031 98.9764C209.35 99.7617 209.676 100.602 210.012 101.496C210.357 102.371 210.699 103.288 211.037 104.247C211.386 105.186 211.724 106.12 212.054 107.049C212.378 107.963 212.686 108.849 212.978 109.708C213.27 110.567 213.524 111.355 213.74 112.073C213.966 112.821 213.866 113.463 213.44 114C213.029 114.531 212.315 114.951 211.298 115.258C210.834 115.398 210.434 115.396 210.097 115.253C209.779 115.12 209.558 114.844 209.431 114.425C208.809 112.361 208.174 110.447 207.528 108.683C206.892 106.9 206.303 105.324 205.759 103.954C205.23 102.579 204.773 101.444 204.389 100.548C204.015 99.6326 203.776 99.0029 203.672 98.6588ZM216.227 104.248C216.151 103.994 216.095 103.701 216.06 103.368C216.025 103.036 215.951 102.683 215.838 102.309C215.762 102.055 215.591 101.894 215.326 101.827C215.076 101.756 214.791 101.678 214.472 101.595C214.153 101.512 213.843 101.377 213.542 101.19C213.256 100.999 213.041 100.664 212.897 100.185C212.793 99.8412 212.779 99.47 212.854 99.0718C212.945 98.6691 213.127 98.2715 213.4 97.879C214.085 96.9546 214.819 96.0884 215.603 95.2806C216.403 94.4683 217.22 93.7405 218.054 93.0972C218.903 92.4494 219.762 91.8884 220.631 91.4142C221.5 90.94 222.36 90.5743 223.213 90.3171C224.649 89.884 226.077 89.7472 227.496 89.9067C228.925 90.0468 230.244 90.4407 231.451 91.0884C232.668 91.7167 233.734 92.5705 234.647 93.6497C235.57 94.7094 236.244 95.9423 236.668 97.3485C237.083 98.7248 237.186 100.122 236.977 101.539C236.779 102.937 236.333 104.247 235.641 105.468C234.948 106.688 234.025 107.767 232.871 108.702C231.736 109.648 230.443 110.34 228.992 110.778C227.571 111.206 226.183 111.364 224.827 111.251C223.47 111.138 222.225 110.795 221.09 110.224C219.95 109.637 218.959 108.842 218.118 107.839C217.273 106.821 216.642 105.624 216.227 104.248ZM228.268 106.59C228.896 106.4 229.509 106.077 230.105 105.619C230.702 105.162 231.204 104.611 231.613 103.965C232.033 103.3 232.316 102.562 232.463 101.75C232.625 100.934 232.573 100.085 232.307 99.2025C232.036 98.305 231.619 97.5169 231.055 96.8382C230.491 96.1596 229.832 95.624 229.077 95.2315C228.333 94.8196 227.515 94.5686 226.622 94.4786C225.745 94.3841 224.85 94.4745 223.938 94.7497C222.277 95.2506 221.137 96.0679 220.516 97.2017C219.89 98.3206 219.846 99.7701 220.383 101.55C220.676 102.523 221.091 103.385 221.628 104.137C222.176 104.869 222.804 105.463 223.512 105.919C224.216 106.359 224.972 106.645 225.779 106.777C226.6 106.905 227.43 106.842 228.268 106.59ZM236.977 86.3615C236.91 86.1371 236.942 85.8909 237.073 85.6228C237.2 85.3397 237.395 85.0686 237.66 84.8093C237.92 84.535 238.229 84.2868 238.586 84.0648C238.954 83.8233 239.34 83.6417 239.744 83.5198C239.968 83.4522 240.173 83.4556 240.359 83.5302C240.559 83.6002 240.771 83.7892 240.995 84.0972C241.214 84.3902 241.461 84.8298 241.735 85.4161C242.02 85.9829 242.355 86.7389 242.738 87.6842C242.888 87.9654 243.01 88.1814 243.104 88.3325C243.209 88.464 243.307 88.5162 243.397 88.4892C243.531 88.4486 243.596 88.1761 243.591 87.6717C243.731 84.1859 244.833 82.1317 246.897 81.5091C247.855 81.2203 248.813 81.2578 249.771 81.6216C250.744 81.9808 251.773 82.7396 252.857 83.8979C253.951 85.0367 255.138 86.6206 256.42 88.6496C257.696 90.6636 259.128 93.1937 260.716 96.24C260.796 96.3955 260.863 96.5383 260.919 96.6685C260.974 96.7986 261.02 96.9235 261.056 97.0432C261.16 97.3872 261.168 97.7112 261.08 98.0152C261.003 98.2996 260.862 98.5625 260.657 98.8038C260.448 99.0301 260.198 99.228 259.906 99.3975C259.619 99.582 259.318 99.7217 259.004 99.8164C258.376 100.006 257.899 100.076 257.574 100.027C257.265 99.9739 257.016 99.7714 256.828 99.42C255.709 97.277 254.673 95.3861 253.722 93.7472C252.786 92.1038 251.935 90.7447 251.17 89.6698C250.416 88.5754 249.749 87.7727 249.171 87.2617C248.592 86.7507 248.109 86.5538 247.72 86.6712C247.331 86.7885 247.039 87.1458 246.844 87.7433C246.659 88.3212 246.565 89.1737 246.562 90.3006C246.559 91.4276 246.648 92.829 246.827 94.505C247.021 96.1764 247.315 98.1522 247.709 100.432C247.814 101.053 247.66 101.622 247.244 102.139C246.829 102.656 246.217 103.037 245.41 103.28C244.871 103.443 244.426 103.454 244.074 103.316C243.722 103.177 243.472 102.918 243.325 102.538C242.252 99.467 241.331 96.954 240.562 94.9991C239.803 93.0247 239.174 91.4519 238.674 90.2808C238.169 89.0948 237.782 88.2161 237.511 87.6448C237.241 87.0735 237.063 86.6457 236.977 86.3615Z" fill="black"/>
</svg>
