<?xml version="1.0" standalone="no"?>
<!DOCTYPE svg PUBLIC "-//W3C//DTD SVG 20010904//EN"
 "http://www.w3.org/TR/2001/REC-SVG-20010904/DTD/svg10.dtd">
<svg version="1.0" xmlns="http://www.w3.org/2000/svg"
 width="512.000000pt" height="512.000000pt" viewBox="0 0 512.000000 512.000000"
 preserveAspectRatio="xMidYMid meet">
<metadata>
Created by potrace 1.14, written by Peter Selinger 2001-2017
</metadata>
<g transform="translate(0.000000,512.000000) scale(0.100000,-0.100000)"
fill="#000000" stroke="none">
<path d="M943 4314 c-64 -31 -116 -90 -143 -161 -20 -53 -20 -76 -20 -1593 0
-1487 1 -1542 19 -1590 28 -74 73 -125 143 -159 l61 -31 1557 0 1557 0 61 31
c70 34 115 85 143 159 18 48 19 103 19 1590 0 1517 0 1540 -20 1593 -57 152
-212 225 -345 163 -92 -42 -118 -85 -237 -377 -59 -145 -134 -329 -166 -409
-134 -326 -688 -1684 -738 -1808 -72 -180 -109 -245 -165 -296 -59 -53 -113
-71 -170 -56 -54 15 -119 76 -157 147 -26 50 -153 366 -402 1003 -32 80 -144
363 -249 630 -106 267 -243 613 -304 769 -92 233 -119 291 -151 329 -80 90
-192 115 -293 66z m2862 -2941 c-3 -10 -65 -13 -263 -13 -142 0 -261 3 -264 6
-5 5 35 107 267 674 37 91 91 224 120 295 79 196 121 298 131 320 9 20 19
-1259 9 -1282z m-2414 1071 c66 -167 138 -349 338 -855 44 -113 81 -211 81
-217 0 -9 -60 -12 -247 -10 l-248 3 -3 634 c-1 349 0 632 3 630 2 -3 37 -86
76 -185z"/>
</g>
</svg>
